<svg xmlns="http://www.w3.org/2000/svg" width="1897.761" height="1087.569" viewBox="0 0 1897.761 1087.569"><defs><style>.a,.c,.x{fill:#727272;}.a{font-size:50px;font-family:Poppins-Bold, Poppins;font-weight:700;}.b{font-family:Poppins-Regular, Poppins;font-weight:400;}.c{font-size:60px;font-family:Poppins-Medium, Poppins;font-weight:500;}.d{fill:#a1a3b2;opacity:0.6;}.e{fill:#a7a9ac;}.f{fill:#0891c1;}.g,.v{fill:#ffd5a1;}.h{fill:#916622;}.i{fill:#dda262;}.j,.u{fill:#f8bf53;}.k{fill:#999;}.l{fill:#ccc;}.m{opacity:0.3;}.m,.t{mix-blend-mode:multiply;isolation:isolate;}.n,.t{fill:#353c4f;}.o{fill:#0b2025;}.p{fill:#5e5e5e;}.q{fill:#919191;}.r{fill:#eda93b;}.s{fill:#f4cf98;}.t{opacity:0.2;}.aa,.ab,.ac,.ad,.ae,.af,.u,.v,.w,.x,.y,.z{fill-rule:evenodd;}.w{fill:#fff;}.y{fill:#898989;}.z{fill:#a6a6a6;}.aa{fill:#504d4d;}.ab{fill:#fab314;}.ac{fill:#676767;}.ad{fill:#878787;}.ae{fill:#412b34;}.af{fill:#bc8318;}</style></defs><g transform="translate(-373.239 -3905.867)"><text class="a" transform="translate(707 4284)"><tspan x="-79.7" y="0">94,199</tspan><tspan class="b"><tspan x="-108.7" y="68">students</tspan><tspan x="-146.4" y="136">outreached</tspan></tspan></text><text class="a" transform="translate(1178 4063)"><tspan x="-53.175" y="0">30%</tspan><tspan class="b"><tspan x="-170" y="68">improvement</tspan><tspan x="-135.6" y="136">in parental</tspan><tspan x="-160.75" y="204">participation</tspan></tspan></text><text class="a" transform="translate(1618 3994)"><tspan x="-63.95" y="0">5,361</tspan><tspan class="b"><tspan x="-110.55" y="68">teachers</tspan><tspan x="-89.875" y="136">trained</tspan></tspan></text><text class="c" transform="translate(450 4957)"><tspan x="-73.59" y="0">2003</tspan></text><text class="c" transform="translate(2170 4955)"><tspan x="-100.77" y="0">TODAY</tspan></text><g transform="translate(347.401 3763.935)"><path class="d" d="M98.108,776.932c0,5.719,4.676,10.355,12.089,10.355l1703.421,0c7.413,0,13.423-4.636,13.423-10.355h0c0-5.716-6.01-10.353-13.423-10.353H110.2c-7.413,0-12.089,4.636-12.089,10.355Z" transform="translate(-72.27 442.215)"/><g transform="translate(101.086 432.31)"><g transform="translate(0 651.572)"><path class="e" d="M107.7,734.2a5.256,5.256,0,0,1-5.14-6.33s.873-4.155,2.617-11.624a5.248,5.248,0,1,1,10.22,2.389c-1.7,7.289-2.558,11.361-2.565,11.4A5.252,5.252,0,0,1,107.7,734.2Z" transform="translate(-102.447 -712.195)"/></g><g transform="translate(11.816 263.687)"><path class="e" d="M112.775,907.256a5.255,5.255,0,0,1-5.073-6.6c1.939-7.249,3.986-14.659,6.085-22.02a5.249,5.249,0,1,1,10.094,2.882c-2.084,7.3-4.116,14.655-6.039,21.848A5.253,5.253,0,0,1,112.775,907.256Zm16.971-58.249a5.251,5.251,0,0,1-5.008-6.83c2.3-7.256,4.675-14.564,7.075-21.722a5.247,5.247,0,1,1,9.95,3.338c-2.379,7.1-4.74,14.348-7.014,21.546A5.254,5.254,0,0,1,129.746,849.007Zm19.669-57.369a5.251,5.251,0,0,1-4.919-7.079c2.687-7.221,5.445-14.4,8.2-21.338a5.248,5.248,0,1,1,9.754,3.874c-2.728,6.868-5.459,13.975-8.12,21.124A5.247,5.247,0,0,1,149.416,791.638Zm22.859-56.16a5.254,5.254,0,0,1-4.791-7.389c3.166-7.091,6.407-14.082,9.64-20.78a5.247,5.247,0,1,1,9.452,4.558c-3.182,6.607-6.383,13.5-9.505,20.5A5.254,5.254,0,0,1,172.274,735.477ZM528.283,699.1a5.243,5.243,0,0,1-4.733-2.98c-3.247-6.77-6.7-13.484-10.262-19.96a5.249,5.249,0,0,1,9.2-5.059c3.653,6.646,7.2,13.535,10.527,20.479a5.25,5.25,0,0,1-4.731,7.519Zm-329.02-17.907a5.25,5.25,0,0,1-4.581-7.8c3.825-6.861,7.729-13.528,11.605-19.818a5.248,5.248,0,1,1,8.937,5.506c-3.8,6.16-7.624,12.695-11.37,19.422A5.251,5.251,0,0,1,199.263,681.189Zm298.717-34.526a5.246,5.246,0,0,1-4.316-2.251c-4.335-6.234-8.842-12.243-13.4-17.858a5.249,5.249,0,0,1,8.148-6.619c4.726,5.818,9.393,12.036,13.877,18.484a5.247,5.247,0,0,1-4.3,8.243ZM232.013,630.231a5.246,5.246,0,0,1-4.188-8.4c4.782-6.351,9.673-12.392,14.545-17.953a5.248,5.248,0,0,1,7.9,6.914c-4.7,5.371-9.431,11.207-14.059,17.353A5.239,5.239,0,0,1,232.013,630.231Zm226.393-29.3a5.226,5.226,0,0,1-3.522-1.362,199.654,199.654,0,0,0-17.174-13.956,5.248,5.248,0,0,1,6.141-8.511A209.274,209.274,0,0,1,461.935,591.8a5.248,5.248,0,0,1-3.529,9.135ZM273.388,586.181a5.25,5.25,0,0,1-3.315-9.321,167.515,167.515,0,0,1,19.117-13.507,5.249,5.249,0,1,1,5.415,8.993,156.649,156.649,0,0,0-17.909,12.66A5.242,5.242,0,0,1,273.388,586.181Zm134.561-18.238a5.229,5.229,0,0,1-2.046-.419,145.543,145.543,0,0,0-20.721-7.021,5.248,5.248,0,1,1,2.6-10.169A156.021,156.021,0,0,1,410,557.863a5.248,5.248,0,0,1-2.053,10.08Zm-81.315-9.233a5.249,5.249,0,0,1-1.178-10.362,107.841,107.841,0,0,1,23.569-2.77h.03a5.249,5.249,0,0,1,.03,10.5,97.174,97.174,0,0,0-21.264,2.5A5.226,5.226,0,0,1,326.634,558.71Z" transform="translate(-107.523 -545.578)"/></g><g transform="translate(442.092 441.404)"><path class="e" d="M301.453,643.591h-.028a5.248,5.248,0,0,1-4.989-3.713c-.014-.04-1.259-4.1-3.76-10.869a5.25,5.25,0,0,1,8.725-5.438,5.25,5.25,0,0,1,8.781,5.324c-2.451,7.028-3.713,11-3.729,11.039A5.244,5.244,0,0,1,301.453,643.591Z" transform="translate(-292.35 -621.917)"/></g><g transform="translate(463.264 128.527)"><path class="e" d="M306.693,774.519a5.253,5.253,0,0,1-4.882-7.177c2.861-7.247,5.836-14.552,8.842-21.711a5.248,5.248,0,0,1,9.678,4.065c-2.975,7.089-5.92,14.322-8.753,21.5A5.25,5.25,0,0,1,306.693,774.519Zm24.521-57.164a5.19,5.19,0,0,1-2.209-.491,5.248,5.248,0,0,1-2.547-6.97c3.31-7.115,6.726-14.226,10.15-21.143a5.249,5.249,0,0,1,9.407,4.661c-3.39,6.84-6.767,13.875-10.038,20.908A5.249,5.249,0,0,1,331.214,717.355ZM359.348,661.9a5.249,5.249,0,0,1-4.584-7.794c3.876-6.984,7.817-13.835,11.724-20.358a5.248,5.248,0,1,1,9.007,5.389c-3.846,6.427-7.734,13.176-11.554,20.06A5.243,5.243,0,0,1,359.348,661.9Zm373.04-.312a5.247,5.247,0,0,1-4.721-2.95c-3.4-6.972-6.954-13.889-10.553-20.556a5.249,5.249,0,0,1,9.237-4.987c3.667,6.793,7.282,13.838,10.748,20.943a5.251,5.251,0,0,1-4.712,7.55Zm-340.43-52.634a5.248,5.248,0,0,1-4.316-8.227c4.558-6.612,9.2-13.034,13.812-19.087A5.249,5.249,0,0,1,409.807,588c-4.509,5.922-9.058,12.208-13.521,18.687A5.245,5.245,0,0,1,391.959,608.959ZM702,607.373a5.244,5.244,0,0,1-4.416-2.4c-4.242-6.574-8.611-12.967-12.995-19a5.248,5.248,0,0,1,8.49-6.172c4.5,6.19,8.979,12.743,13.328,19.481A5.25,5.25,0,0,1,702,607.373ZM430.6,560.329a5.248,5.248,0,0,1-3.834-8.832c5.555-5.948,11.219-11.568,16.829-16.7a5.248,5.248,0,1,1,7.084,7.745c-5.408,4.95-10.874,10.374-16.242,16.121A5.236,5.236,0,0,1,430.6,560.329Zm233.726-2.314a5.241,5.241,0,0,1-3.865-1.695c-5.3-5.766-10.739-11.191-16.161-16.128a5.249,5.249,0,0,1,7.068-7.762c5.65,5.145,11.312,10.793,16.82,16.785a5.249,5.249,0,0,1-3.862,8.8Zm-186.505-37.8a5.248,5.248,0,0,1-2.81-9.685,168.135,168.135,0,0,1,21.131-11.393,5.248,5.248,0,1,1,4.284,9.582,157.42,157.42,0,0,0-19.8,10.683A5.235,5.235,0,0,1,477.822,520.211Zm139.07-2a5.225,5.225,0,0,1-2.708-.754,147.581,147.581,0,0,0-20.03-10.157,5.249,5.249,0,0,1,4-9.708,158.675,158.675,0,0,1,21.46,10.879,5.248,5.248,0,0,1-2.719,9.74Zm-81.466-19.46a5.248,5.248,0,0,1-.591-10.462c3.811-.435,7.675-.689,11.484-.754a125.631,125.631,0,0,1,12.79.435,5.248,5.248,0,0,1-.894,10.457,115.6,115.6,0,0,0-11.717-.4c-3.471.058-6.993.291-10.464.689A5.379,5.379,0,0,1,535.426,498.754Z" transform="translate(-301.444 -487.519)"/></g><g transform="translate(904.712 327.285)"><path class="e" d="M500.55,594.578a5.249,5.249,0,0,1-4.949-3.5c-.014-.039-1.434-4.044-4.151-10.8a5.249,5.249,0,0,1,8.788-5.45,5.249,5.249,0,0,1,9.026,5.033c-2.435,7.061-3.7,11.035-3.713,11.07a5.252,5.252,0,0,1-4.921,3.653Z" transform="translate(-491.07 -572.897)"/></g><g transform="translate(926.674)"><path class="e" d="M505.754,731.89a5.25,5.25,0,0,1-4.9-7.138c2.94-7.622,5.985-15.3,9.053-22.826a5.248,5.248,0,1,1,9.72,3.964c-3.043,7.461-6.062,15.078-8.977,22.637A5.25,5.25,0,0,1,505.754,731.89Zm25.021-60.211a5.248,5.248,0,0,1-4.786-7.394c3.371-7.538,6.828-15.043,10.273-22.309a5.247,5.247,0,0,1,9.484,4.493c-3.413,7.2-6.835,14.636-10.178,22.1A5.25,5.25,0,0,1,530.775,671.679ZM559.2,613.023a5.248,5.248,0,0,1-4.635-7.7c3.9-7.405,7.862-14.671,11.777-21.6a5.247,5.247,0,1,1,9.135,5.164c-3.86,6.837-7.773,14.012-11.631,21.327A5.245,5.245,0,0,1,559.2,613.023ZM911.493,568.4a5.24,5.24,0,0,1-4.363-2.326c-4.523-6.742-9.217-13.388-13.954-19.755a5.249,5.249,0,0,1,8.423-6.267c4.84,6.507,9.633,13.3,14.247,20.177a5.249,5.249,0,0,1-4.353,8.171ZM591.962,556.693a5.247,5.247,0,0,1-4.4-8.1c4.581-7.077,9.247-13.947,13.865-20.414a5.247,5.247,0,1,1,8.541,6.1c-4.526,6.341-9.1,13.076-13.6,20.023A5.243,5.243,0,0,1,591.962,556.693ZM871.633,516.9a5.244,5.244,0,0,1-3.9-1.732c-5.517-6.113-11.142-11.936-16.715-17.309A5.249,5.249,0,0,1,858.3,490.3c5.75,5.541,11.545,11.542,17.227,17.835a5.25,5.25,0,0,1-3.895,8.765ZM630.884,504.49a5.247,5.247,0,0,1-3.941-8.709c5.68-6.47,11.442-12.532,17.127-18.019a5.249,5.249,0,1,1,7.289,7.554c-5.478,5.284-11.039,11.135-16.529,17.388A5.227,5.227,0,0,1,630.884,504.49ZM823.4,473.266a5.218,5.218,0,0,1-3.022-.961,197.169,197.169,0,0,0-20.172-12.546,5.248,5.248,0,0,1,4.97-9.245,207.5,207.5,0,0,1,21.255,13.216,5.248,5.248,0,0,1-3.031,9.536ZM679.446,461.419a5.248,5.248,0,0,1-2.812-9.682,140.124,140.124,0,0,1,22.472-11.645,5.248,5.248,0,1,1,3.92,9.736A129.478,129.478,0,0,0,682.249,460.6,5.224,5.224,0,0,1,679.446,461.419Zm85.4-15.544a5.353,5.353,0,0,1-1.173-.133,117.682,117.682,0,0,0-23.124-2.936,5.249,5.249,0,0,1,.265-10.495,128.245,128.245,0,0,1,25.194,3.2,5.249,5.249,0,0,1-1.162,10.367Z" transform="translate(-500.504 -432.31)"/></g><g transform="translate(1353.654 159.43)"><path class="e" d="M694.743,522.389a5.242,5.242,0,0,1-4.691-2.9c-.021-.037-1.928-3.841-5.468-10.18a5.248,5.248,0,1,1,9.161-5.122l.077.137.028-.072a5.247,5.247,0,1,1,9.862,3.587l-4.035,11.1a5.251,5.251,0,0,1-4.63,3.445C694.943,522.386,694.843,522.389,694.743,522.389Z" transform="translate(-683.915 -500.794)"/></g><g transform="translate(1372.275 119.801)"><path class="e" d="M697.162,509.13a5.25,5.25,0,0,1-4.931-7.044l5.406-14.86a5.247,5.247,0,1,1,9.861,3.587l-5.406,14.862A5.249,5.249,0,0,1,697.162,509.13Z" transform="translate(-691.913 -483.771)"/></g><g transform="translate(1386.686 83.934)"><path class="e" d="M703.354,489.96a5.247,5.247,0,0,1-4.931-7.042l4.034-11.1a5.248,5.248,0,1,1,9.864,3.587l-4.037,11.1A5.249,5.249,0,0,1,703.354,489.96Z" transform="translate(-698.104 -468.364)"/></g></g><g transform="translate(402.933 995.755)"><path class="f" d="M262.45,674.34l245.257,0v11.375l-99,0a18.99,18.99,0,0,0-18.969,18.966V710.9a18.991,18.991,0,0,0,18.969,18.959h99v11.381l-245.257,0A30.344,30.344,0,0,1,232.107,710.9v-6.218A30.345,30.345,0,0,1,262.45,674.34Z" transform="translate(-232.107 -674.34)"/></g><g transform="translate(560.566 1007.13)"><path class="g" d="M318.788,723.367a18.991,18.991,0,0,1-18.969-18.959v-6.216a18.99,18.99,0,0,1,18.969-18.966l85.617,0s-8.029,4.677-8.029,20.726c0,18.738,8.029,23.413,8.029,23.413Z" transform="translate(-299.819 -679.226)"/></g><g transform="translate(439.864 1151.616)"><path class="g" d="M580.279,796.134a18.977,18.977,0,0,0,18.968-18.959v-16.92a18.98,18.98,0,0,0-18.968-18.961l-332.307,0S256,751.32,256,767.372c0,18.738-8.032,28.76-8.032,28.76Z" transform="translate(-247.971 -741.291)"/></g><g transform="translate(659.545 1151.619)"><path class="h" d="M383.164,741.292H342.336s4.018,8.432,4.018,26.837-4.018,28-4.018,28l40.828,0Z" transform="translate(-342.336 -741.292)"/></g><g transform="translate(657.211 1149.287)"><path class="i" d="M343.665,799.8a2.335,2.335,0,0,1-2.151-3.234c.037-.088,3.836-9.486,3.836-27.1,0-17.518-3.755-25.761-3.795-25.843a2.334,2.334,0,0,1,4.218-2c.172.363,4.244,9.124,4.244,27.841,0,18.659-4.027,28.495-4.2,28.9A2.333,2.333,0,0,1,343.665,799.8Z" transform="translate(-341.333 -740.29)"/></g><path class="j" d="M558.4,736.409l-315,0v11.377l227.543,0a18.98,18.98,0,0,1,18.966,18.959v16.92a18.977,18.977,0,0,1-18.966,18.959H243.4v11.37l315,0a30.331,30.331,0,0,0,30.345-30.329v-16.92A30.341,30.341,0,0,0,558.4,736.409Z" transform="translate(185.828 403.835)"/><g transform="translate(658.624 1140.242)"><path class="g" d="M455.488,736.407l-113.548,0a30.342,30.342,0,0,1,30.345,30.336v16.92a30.335,30.335,0,0,1-30.345,30.332H455.488a30.332,30.332,0,0,0,30.345-30.329v-16.92A30.341,30.341,0,0,0,455.488,736.407Z" transform="translate(-341.94 -736.405)"/></g><g transform="translate(459.124 1062.65)"><path class="k" d="M501.508,703.077l-245.264,0v11.377l245.264,0a18.982,18.982,0,0,1,18.952,18.961v16.915a18.98,18.98,0,0,1-18.952,18.959H256.244v11.375l245.264,0a30.332,30.332,0,0,0,30.327-30.336V733.416A30.328,30.328,0,0,0,501.508,703.077Z" transform="translate(-256.244 -703.075)"/></g><g transform="translate(472.5 1074.027)"><path class="l" d="M493.877,762.8c10.441,0,14.287-8.5,14.287-18.959V726.926c0-10.46-3.846-18.961-14.287-18.961l-231.887,0s8.032,10.027,8.032,26.078c0,18.726-8.032,28.76-8.032,28.76Z" transform="translate(-261.99 -707.962)"/></g><g class="m" transform="translate(573.847 1096.036)"><path class="n" d="M360.488,722.084h0l-52.629,0a2.333,2.333,0,1,1,0-4.665h52.629a2.334,2.334,0,1,1,0,4.668Z" transform="translate(-305.524 -717.416)"/></g><g class="m" transform="translate(580.847 1098.369)"><path class="o" d="M360.742,760.528l-8.911-42.109h-43.3l8.911,42.109Z" transform="translate(-308.531 -718.418)"/></g><g class="m" transform="translate(586.874 1140.283)"><path class="o" d="M349.968,768.181l-19.422-6.393-19.426,6.393V736.423h38.848Z" transform="translate(-311.12 -736.423)"/></g><path class="g" d="M262.45,674.34l245.257,0v11.375l-99,0a18.99,18.99,0,0,0-18.969,18.966V710.9a18.991,18.991,0,0,0,18.969,18.959h99v11.381l-245.257,0A30.344,30.344,0,0,1,232.107,710.9v-6.218A30.345,30.345,0,0,1,262.45,674.34Z" transform="translate(170.826 321.415)"/><path class="j" d="M327.964,729.856A18.991,18.991,0,0,1,309,710.9v-6.216a18.99,18.99,0,0,1,18.969-18.966l99,0V674.342l-103.71,0a30.345,30.345,0,0,0-30.343,30.341V710.9a30.344,30.344,0,0,0,30.343,30.341h103.71V729.856Z" transform="translate(251.57 321.415)"/><path class="j" d="M351.83,787.759l-21.647-7.125-21.652,7.125v-69.34h43.3Z" transform="translate(272.316 379.95)"/><rect class="g" width="43.299" height="41.72" transform="translate(580.847 1098.369)"/><path class="p" d="M362.7,708.046s3.541,7.543,3.541,26.465S362.7,762.5,362.7,762.5a18.976,18.976,0,0,0,16.4-18.768V726.814A18.976,18.976,0,0,0,362.7,708.046Z" transform="translate(344.246 366.176)"/><path class="h" d="M317.142,679.262a18.987,18.987,0,0,0-17.323,18.882v6.216a18.986,18.986,0,0,0,17.323,18.875s-2.982-8.306-2.982-22.3S317.142,679.262,317.142,679.262Z" transform="translate(260.747 327.951)"/><path class="q" d="M361.9,709.128c.035.075,3.327,7.494,3.327,25.485,0,18.144-3.35,27.054-3.383,27.137a2.294,2.294,0,0,0-.144,1.029,14.876,14.876,0,0,0,5-.857c1.015-3.352,3.194-12.289,3.194-27.31,0-14.455-2.039-22.507-3.117-25.755a14.857,14.857,0,0,0-5.068-.889A2.329,2.329,0,0,0,361.9,709.128Z" transform="translate(342.919 366.074)"/><path class="g" d="M936.928,795.8a19.007,19.007,0,0,0,19-18.987V759.871a19.009,19.009,0,0,0-19-18.987l-304.842,0s8.043,10.043,8.043,26.118c0,18.764-8.043,28.8-8.043,28.8Z" transform="translate(701.996 409.782)"/><path class="h" d="M767.473,740.882H726.586s4.025,8.446,4.025,26.877-4.025,28.041-4.025,28.041l40.887,0Z" transform="translate(827.492 409.782)"/><g transform="translate(1551.741 1148.331)"><path class="i" d="M727.917,799.468a2.338,2.338,0,0,1-2.153-3.238c.037-.089,3.843-9.5,3.843-27.14,0-17.541-3.762-25.8-3.8-25.88a2.335,2.335,0,0,1,4.22-2c.175.363,4.251,9.137,4.251,27.88,0,18.685-4.032,28.534-4.2,28.944A2.336,2.336,0,0,1,727.917,799.468Z" transform="translate(-725.582 -739.88)"/></g><path class="j" d="M915.059,735.991l-287.545,0v11.393H855.383a19.006,19.006,0,0,1,18.994,18.987v16.945a19,19,0,0,1-19,18.985H627.512v11.386l287.547,0a30.379,30.379,0,0,0,30.39-30.373V766.371A30.386,30.386,0,0,0,915.059,735.991Z" transform="translate(695.922 403.283)"/><path class="r" d="M811.958,735.989H726.19a30.386,30.386,0,0,1,30.39,30.378v16.945a30.379,30.379,0,0,1-30.39,30.374h85.768a30.379,30.379,0,0,0,30.39-30.374V766.369A30.386,30.386,0,0,0,811.958,735.989Z" transform="translate(826.966 403.284)"/><path class="k" d="M891.859,655.25l-249.305,0V643.689l249.305,0a19.294,19.294,0,0,0,19.266-19.273V607.219a19.294,19.294,0,0,0-19.266-19.273l-249.305,0V576.385l249.305,0a30.833,30.833,0,0,1,30.827,30.837v17.195A30.831,30.831,0,0,1,891.859,655.25Z" transform="translate(715.898 191.324)"/><path class="l" d="M884.1,581.348c10.616,0,14.522,8.642,14.522,19.274v17.192c0,10.632-3.906,19.274-14.522,19.274l-235.71,0s8.164-10.19,8.164-26.507c0-19.036-8.164-29.233-8.164-29.233Z" transform="translate(723.653 197.922)"/><path class="p" d="M750.759,636.78s3.6-7.666,3.6-26.9-3.6-28.446-3.6-28.446A19.29,19.29,0,0,1,767.43,600.51V617.7A19.29,19.29,0,0,1,750.759,636.78Z" transform="translate(859.593 198.033)"/><path class="q" d="M749.954,635.889c.035-.074,3.383-7.617,3.383-25.906,0-18.443-3.406-27.5-3.438-27.582a2.34,2.34,0,0,1-.147-1.047,15.2,15.2,0,0,1,5.08.871c1.031,3.408,3.247,12.492,3.247,27.759,0,14.694-2.074,22.879-3.168,26.181a15.1,15.1,0,0,1-5.152.906A2.352,2.352,0,0,1,749.954,635.889Z" transform="translate(858.245 197.928)"/><path class="l" d="M738.585,568.021a18.992,18.992,0,0,0,18.966-18.959v-6.218a18.99,18.99,0,0,0-18.966-18.964H652.968S661,528.559,661,544.609c0,18.738-8.029,23.413-8.029,23.413Z" transform="translate(729.727 121.605)"/><path class="l" d="M864.534,518.993,647.22,519V530.37h99a18.99,18.99,0,0,1,18.966,18.964v6.218a18.992,18.992,0,0,1-18.966,18.959h-99v11.382l217.314,0a30.345,30.345,0,0,0,30.343-30.341v-6.216A30.347,30.347,0,0,0,864.534,518.993Z" transform="translate(722.094 115.115)"/><path class="k" d="M746.218,574.51a18.99,18.99,0,0,0,18.966-18.959v-6.218a18.99,18.99,0,0,0-18.966-18.964h-99V518.994H750.93a30.345,30.345,0,0,1,30.343,30.339v6.218a30.345,30.345,0,0,1-30.343,30.341H647.22V574.51Z" transform="translate(722.094 115.116)"/><path class="p" d="M690.452,523.916a18.985,18.985,0,0,1,17.32,18.88v6.218a18.984,18.984,0,0,1-17.32,18.875s2.98-8.306,2.98-22.3S690.452,523.916,690.452,523.916Z" transform="translate(779.506 121.652)"/><path class="s" d="M868.646,670.126a19.023,19.023,0,0,0,19.013-19V634.165a19.023,19.023,0,0,0-19.011-19l-217.353,0s8.05,10.052,8.05,26.139c0,18.778-8.05,28.823-8.05,28.823Z" transform="translate(727.506 242.827)"/><path class="h" d="M759.415,615.163H718.5s4.025,8.453,4.025,26.9-4.025,28.064-4.025,28.064h40.915Z" transform="translate(816.754 242.828)"/><g transform="translate(1532.914 855.655)"><path class="i" d="M719.833,673.795a2.339,2.339,0,0,1-2.156-3.241c.037-.089,3.846-9.508,3.846-27.163,0-17.555-3.764-25.818-3.8-25.9a2.339,2.339,0,0,1,4.228-2c.172.363,4.251,9.144,4.251,27.9,0,18.7-4.034,28.557-4.207,28.967A2.341,2.341,0,0,1,719.833,673.795Z" transform="translate(-717.495 -614.16)"/></g><path class="r" d="M874.727,610.267l-228.008,0v11.4l164.331,0a19.021,19.021,0,0,1,19.008,19v16.957a19.018,19.018,0,0,1-19.008,19H646.718v11.4l228.006,0a30.4,30.4,0,0,0,30.413-30.4V640.669A30.407,30.407,0,0,0,874.727,610.267Z" transform="translate(721.427 236.323)"/><path class="j" d="M807.871,610.266H718.1a30.407,30.407,0,0,1,30.411,30.4v16.957a30.4,30.4,0,0,1-30.411,30.4h89.768a30.4,30.4,0,0,0,30.411-30.4V640.67A30.408,30.408,0,0,0,807.871,610.266Z" transform="translate(816.227 236.325)"/><path class="s" d="M741.6,638.9A30.359,30.359,0,0,1,718.1,650h89.768a30.356,30.356,0,0,0,23.5-11.107Z" transform="translate(816.227 274.345)"/><path class="s" d="M807.871,610.266H718.1a30.392,30.392,0,0,1,27.629,17.753H835.5A30.392,30.392,0,0,0,807.871,610.266Z" transform="translate(816.227 236.325)"/><path class="l" d="M708.277,712.139A18.988,18.988,0,0,0,689.309,731.1v6.218a18.989,18.989,0,0,0,18.966,18.964l113.562,0s-8.029-4.677-8.029-20.726c0-18.738,8.029-23.413,8.029-23.413Z" transform="translate(777.988 371.608)"/><path class="l" d="M675.946,774.147l217.314,0V762.768l-126.943,0a18.989,18.989,0,0,1-18.966-18.964v-6.218a18.988,18.988,0,0,1,18.968-18.957l126.941,0V707.247l-217.314,0A30.344,30.344,0,0,0,645.6,737.59v6.218A30.345,30.345,0,0,0,675.946,774.147Z" transform="translate(719.947 365.115)"/><path class="k" d="M717.455,718.631a18.988,18.988,0,0,0-18.968,18.957v6.218a18.989,18.989,0,0,0,18.966,18.964l126.943,0v11.377H712.743A30.345,30.345,0,0,1,682.4,743.806v-6.218a30.344,30.344,0,0,1,30.345-30.339l131.653,0v11.382Z" transform="translate(768.81 365.115)"/><path class="p" d="M706.632,756.144a18.983,18.983,0,0,1-17.323-18.88v-6.218a18.984,18.984,0,0,1,17.323-18.873s-2.982,8.3-2.982,22.3S706.632,756.144,706.632,756.144Z" transform="translate(777.988 371.657)"/><path class="l" d="M656.089,648.015a17.248,17.248,0,0,0-17.239,17.229v15.374a17.251,17.251,0,0,0,17.239,17.23H928.241s-7.3-9.114-7.3-23.7c0-17.027,7.3-26.134,7.3-26.134Z" transform="translate(710.979 286.455)"/><path class="p" d="M686.284,697.848h37.1s-3.65-7.664-3.65-24.388,3.65-25.445,3.65-25.445h-37.1Z" transform="translate(773.971 286.455)"/><g transform="translate(1491.585 932.35)"><path class="q" d="M705.516,647.1a2.121,2.121,0,0,1,1.953,2.94c-.032.079-3.485,8.618-3.487,24.625,0,15.919,3.415,23.41,3.45,23.485a2.12,2.12,0,0,1-3.832,1.816c-.158-.331-3.857-8.292-3.857-25.3,0-16.955,3.66-25.892,3.815-26.264A2.12,2.12,0,0,1,705.516,647.1Z" transform="translate(-699.742 -647.104)"/></g><path class="k" d="M673.989,714.079l253.87,0V703.743H778.852a17.247,17.247,0,0,1-17.236-17.23V671.14a17.246,17.246,0,0,1,17.239-17.229H927.86V643.578l-253.87,0a27.566,27.566,0,0,0-27.575,27.564l0,15.374A27.573,27.573,0,0,0,673.989,714.079Z" transform="translate(721.021 280.56)"/><path class="q" d="M661.985,714.079H793.112a27.573,27.573,0,0,1-27.577-27.566V671.14a27.568,27.568,0,0,1,27.577-27.564H661.985A27.566,27.566,0,0,0,634.41,671.14v15.374A27.57,27.57,0,0,0,661.985,714.079Z" transform="translate(705.082 280.56)"/><path class="g" d="M819.742,730.9a22.25,22.25,0,0,0,22.223-22.214V701.4a22.251,22.251,0,0,0-22.223-22.221h-158.1s9.407,5.482,9.407,24.286c0,21.955-9.407,27.433-9.407,27.433Z" transform="translate(741.245 327.838)"/><path class="g" d="M885.766,673.452H654.906V686.78h173.78A22.251,22.251,0,0,1,850.909,709v7.284A22.25,22.25,0,0,1,828.686,738.5H654.906v13.337l230.86,0a35.553,35.553,0,0,0,35.553-35.548V709A35.555,35.555,0,0,0,885.766,673.452Z" transform="translate(732.301 320.236)"/><path class="j" d="M828.686,738.5a22.25,22.25,0,0,0,22.223-22.214V709a22.251,22.251,0,0,0-22.223-22.221H654.906V673.452h179.3A35.557,35.557,0,0,1,869.759,709v7.284a35.554,35.554,0,0,1-35.553,35.548l-179.3,0V738.5Z" transform="translate(732.301 320.236)"/><path class="h" d="M730.382,679.219a22.246,22.246,0,0,1,20.3,22.123v7.284a22.245,22.245,0,0,1-20.3,22.116s3.492-9.731,3.492-26.134S730.382,679.219,730.382,679.219Z" transform="translate(832.533 327.894)"/><path class="s" d="M660.554,551.98a16.685,16.685,0,0,0-16.678,16.669v14.876a16.686,16.686,0,0,0,16.678,16.668l197.149,0s-7.061-8.816-7.061-22.928c0-16.473,7.061-25.284,7.061-25.284Z" transform="translate(717.653 158.921)"/><path class="h" d="M664.351,600.192h35.9s-3.532-7.412-3.532-23.594,3.532-24.616,3.532-24.616h-35.9Z" transform="translate(744.844 158.923)"/><g transform="translate(1439.508 708.85)"><path class="i" d="M682.957,551.1a2.017,2.017,0,0,1,.789.161,2.053,2.053,0,0,1,1.1,2.684c-.033.077-3.373,8.339-3.373,23.827,0,15.4,3.3,22.647,3.336,22.719a2.052,2.052,0,0,1-3.709,1.755c-.151-.319-3.729-8.022-3.729-24.474,0-16.4,3.539-25.052,3.69-25.41A2.056,2.056,0,0,1,682.957,551.1Z" transform="translate(-677.372 -551.099)"/></g><path class="r" d="M652.455,615.9l234.441,0v-10H753.909a16.689,16.689,0,0,1-16.675-16.671V574.353a16.684,16.684,0,0,1,16.675-16.668l132.987,0v-10l-234.441,0a26.669,26.669,0,0,0-26.679,26.665v14.876A26.676,26.676,0,0,0,652.455,615.9Z" transform="translate(693.617 153.219)"/><path class="j" d="M652.455,615.9l99.829,0a26.678,26.678,0,0,1-26.679-26.672V574.353a26.671,26.671,0,0,1,26.679-26.667H652.455a26.669,26.669,0,0,0-26.679,26.665v14.876A26.676,26.676,0,0,0,652.455,615.9Z" transform="translate(693.617 153.219)"/><g transform="translate(1400.349 688.315)"><path class="t" d="M728.514,542.842l-67.963,0h0l67.963,0,.079,0Z" transform="translate(-660.551 -541.533)"/><path class="t" d="M692,542.834c.556-.161,1.1-.347,1.632-.556C693.1,542.488,692.551,542.672,692,542.834Z" transform="translate(-618.791 -542.278)"/><path class="t" d="M716.414,542.278a30.28,30.28,0,0,1-24.642,12.69h113.6a30.286,30.286,0,0,0,24.647-12.69Z" transform="translate(-619.09 -542.278)"/><path class="t" d="M691.281,542.919c.559-.109,1.108-.244,1.648-.4C692.389,542.675,691.84,542.81,691.281,542.919Z" transform="translate(-619.742 -541.958)"/><path class="t" d="M690.534,542.914c.461-.044.91-.123,1.359-.2C691.444,542.793,690.993,542.867,690.534,542.914Z" transform="translate(-620.734 -541.696)"/></g><path class="g" d="M811.958,735.989H726.19a30.363,30.363,0,0,1,27.28,17.057h85.768A30.367,30.367,0,0,0,811.958,735.989Z" transform="translate(826.966 403.284)"/><path class="l" d="M635.884,657.828H767.008a27.57,27.57,0,0,1,24.146-14.252H660.028A27.566,27.566,0,0,0,635.884,657.828Z" transform="translate(707.04 280.56)"/><path class="g" d="M551.7,659.655A18.99,18.99,0,0,0,570.667,640.7V634.48A18.99,18.99,0,0,0,551.7,615.514l-85.619,0s8.029,4.677,8.029,20.726c0,18.738-8.029,23.413-8.029,23.413Z" transform="translate(481.543 243.294)"/><path class="s" d="M649.7,610.628l-189.371,0v11.375l99,0A18.99,18.99,0,0,1,578.3,640.969v6.216a18.99,18.99,0,0,1-18.966,18.959h-99v11.382l189.371,0a30.343,30.343,0,0,0,30.343-30.338v-6.218A30.345,30.345,0,0,0,649.7,610.628Z" transform="translate(473.91 236.805)"/><path class="s" d="M566.313,632.5a18.873,18.873,0,0,1-12.355,4.609H464.382v11.382H644.329A30.342,30.342,0,0,0,671.064,632.5Z" transform="translate(479.286 265.845)"/><path class="j" d="M559.334,666.144A18.99,18.99,0,0,0,578.3,647.185v-6.216A18.99,18.99,0,0,0,559.334,622l-99,0V610.63l103.712,0a30.347,30.347,0,0,1,30.343,30.341v6.216a30.346,30.346,0,0,1-30.343,30.341H460.334V666.144Z" transform="translate(473.91 236.805)"/><path class="h" d="M503.566,615.55a18.986,18.986,0,0,1,17.323,18.882v6.216a18.984,18.984,0,0,1-17.323,18.875s2.982-8.306,2.982-22.3S503.566,615.55,503.566,615.55Z" transform="translate(531.322 243.342)"/><path class="g" d="M636.912,793.508a22.25,22.25,0,0,0,22.223-22.214V764.01a22.25,22.25,0,0,0-22.223-22.221H450.868s9.407,5.482,9.407,24.286c0,21.955-9.407,27.433-9.407,27.433Z" transform="translate(461.339 410.987)"/><path class="s" d="M702.937,736.064h-258.8v13.328H645.855a22.25,22.25,0,0,1,22.223,22.221V778.9a22.25,22.25,0,0,1-22.223,22.214H444.134v13.335h258.8a35.554,35.554,0,0,0,35.551-35.551V771.61A35.553,35.553,0,0,0,702.937,736.064Z" transform="translate(452.397 403.384)"/><path class="j" d="M645.855,801.111A22.25,22.25,0,0,0,668.078,778.9v-7.284a22.25,22.25,0,0,0-22.223-22.221H444.134V736.064H651.377a35.556,35.556,0,0,1,35.551,35.548V778.9a35.553,35.553,0,0,1-35.551,35.548H444.134V801.111Z" transform="translate(452.397 403.384)"/><path class="h" d="M531.612,741.831a22.245,22.245,0,0,1,20.3,22.123v7.284a22.243,22.243,0,0,1-20.3,22.116s3.494-9.733,3.494-26.134S531.612,741.831,531.612,741.831Z" transform="translate(568.567 411.043)"/><path class="s" d="M467.631,672.952l286.935,0v13.307l-201.423,0a22.216,22.216,0,0,0-22.191,22.188v7.275A22.215,22.215,0,0,0,553.143,737.9l201.423,0v13.316l-286.935,0a35.5,35.5,0,0,1-35.5-35.5v-7.273A35.5,35.5,0,0,1,467.631,672.952Z" transform="translate(436.457 319.572)"/><path class="g" d="M496.771,730.311a22.215,22.215,0,0,1-22.191-22.179v-7.275a22.217,22.217,0,0,1,22.191-22.188l185.767,0s-9.391,5.473-9.391,24.251c0,21.921,9.391,27.391,9.391,27.391Z" transform="translate(492.829 327.164)"/><path class="j" d="M507.507,737.9a22.215,22.215,0,0,1-22.191-22.181v-7.273a22.217,22.217,0,0,1,22.191-22.188l201.423,0V672.955l-206.936,0a35.5,35.5,0,0,0-35.5,35.495v7.273a35.5,35.5,0,0,0,35.5,35.5l206.936,0V737.9Z" transform="translate(482.092 319.573)"/><path class="h" d="M494.845,678.711A22.212,22.212,0,0,0,474.58,700.8v7.272a22.21,22.21,0,0,0,20.265,22.083s-3.487-9.717-3.487-26.094S494.845,678.711,494.845,678.711Z" transform="translate(492.829 327.219)"/><g transform="translate(890.783 913.758)"><path class="k" d="M472.492,639.123l249.305,0v11.563l-249.305,0a19.3,19.3,0,0,0-19.267,19.276v17.192a19.294,19.294,0,0,0,19.267,19.273l249.305,0v11.566l-249.305,0a30.834,30.834,0,0,1-30.827-30.839V669.962A30.828,30.828,0,0,1,472.492,639.123Z" transform="translate(-441.665 -639.118)"/></g><g transform="translate(907.088 925.321)"><path class="l" d="M463.191,699.831c-10.616,0-14.522-8.641-14.522-19.273V663.365c0-10.632,3.906-19.273,14.522-19.276l235.71,0s-8.164,10.192-8.164,26.509c0,19.036,8.164,29.233,8.164,29.233Z" transform="translate(-448.669 -644.085)"/></g><g class="m" transform="translate(996.057 947.696)"><path class="n" d="M489.258,658.438a2.371,2.371,0,1,1,0-4.742h53.5a2.371,2.371,0,1,1,0,4.742Z" transform="translate(-486.886 -653.696)"/></g><g class="m" transform="translate(994.115 950.066)"><path class="o" d="M486.052,697.519l9.058-42.8h44.013l-9.058,42.8Z" transform="translate(-486.052 -654.714)"/></g><g transform="translate(1003.173 950.066)"><path class="j" d="M489.943,725.2l22-7.243,22.009,7.243V654.714H489.943Z" transform="translate(-489.943 -654.714)"/></g><g transform="translate(1002.98 949.866)"><rect class="g" width="44.013" height="42.408" transform="translate(0 0.403) rotate(-0.525)"/></g><g transform="translate(902.344 925.524)"><path class="p" d="M463.3,644.172s-3.6,7.666-3.6,26.9,3.6,28.448,3.6,28.448a19.29,19.29,0,0,1-16.671-19.078V663.25A19.288,19.288,0,0,1,463.3,644.172Z" transform="translate(-446.631 -644.172)"/></g><g transform="translate(913.043 925.34)"><path class="q" d="M459.349,645.273c-.033.075-3.38,7.617-3.38,25.9,0,18.445,3.406,27.5,3.438,27.585a2.335,2.335,0,0,1,.147,1.048,15.194,15.194,0,0,1-5.08-.871c-1.031-3.408-3.248-12.492-3.248-27.761,0-14.692,2.074-22.877,3.169-26.178a15.041,15.041,0,0,1,5.152-.906A2.361,2.361,0,0,1,459.349,645.273Z" transform="translate(-451.227 -644.093)"/></g><path class="l" d="M735.8,759.21a16.685,16.685,0,0,0,16.678-16.668V727.666A16.687,16.687,0,0,0,735.8,711l-292.154,0s7.061,8.816,7.061,22.928c0,16.473-7.061,25.284-7.061,25.284Z" transform="translate(451.742 370.092)"/><path class="p" d="M562.5,711H526.6s3.532,7.415,3.532,23.594-3.532,24.619-3.532,24.619H562.5Z" transform="translate(561.917 370.094)"/><g transform="translate(1086.468 1079.04)"><path class="q" d="M527.773,762.429a2.078,2.078,0,0,1-.792-.158,2.05,2.05,0,0,1-1.1-2.684c.03-.079,3.373-8.339,3.373-23.827,0-15.4-3.3-22.649-3.336-22.721a2.05,2.05,0,0,1,3.706-1.755c.154.319,3.732,8.022,3.732,24.476,0,16.4-3.541,25.052-3.692,25.41A2.048,2.048,0,0,1,527.773,762.429Z" transform="translate(-525.722 -710.115)"/></g><path class="k" d="M713.186,706.7l-273.561,0v10l200.049,0a16.687,16.687,0,0,1,16.678,16.669v14.876a16.685,16.685,0,0,1-16.678,16.668l-200.049,0v10l273.561,0a26.673,26.673,0,0,0,26.681-26.667V733.371A26.678,26.678,0,0,0,713.186,706.7Z" transform="translate(446.409 364.387)"/><path class="l" d="M626.083,706.7l-99.827,0a26.678,26.678,0,0,1,26.679,26.672v14.876a26.669,26.669,0,0,1-26.679,26.665l99.827,0a26.673,26.673,0,0,0,26.681-26.667V733.371A26.676,26.676,0,0,0,626.083,706.7Z" transform="translate(561.454 364.387)"/><path class="q" d="M549.562,730.114a26.662,26.662,0,0,1-23.306,13.7l99.827,0a26.664,26.664,0,0,0,23.308-13.7Z" transform="translate(561.454 395.483)"/></g><g transform="translate(-4504 8633.867)"><g transform="translate(6285 -4571.31)"><path class="u" d="M641.471,228.7c-11.068,13.427-25.6,23.758-40.165,33.032-14.121,9-29.046,19.706-45.486,23.891-16.291,4.137-33.865.687-49.261-5.292a115.946,115.946,0,0,1-41.885-28.1c-5.6-5.9-10.154-12.434-14.754-19.119-4.258-6.186-18.73-18.571-25.385-20.6-.737-.218,6.449-2.526,7.312-2.275,40.79,11.683,78.961-11.991,116.724-23.581a197.769,197.769,0,0,1,52.229-8.41c15.829-.467,37.077-1.4,47.526,13.008C657,203.231,649.719,218.687,641.471,228.7Z" transform="translate(-422.232 -166.296)"/><path class="v" d="M641.9,189.969c-4.108-2.071-33.873.527-39.822,1.265A237.037,237.037,0,0,0,480.93,243.4l-.161.036a299.74,299.74,0,0,0-56.536-27.288C413.3,212.273,470.35,199,471.555,198.813c14.247-2.272,28.609-3.834,42.752-6.74,14.78-3.043,28.3-8.444,42.161-14.247,13.479-5.643,27.354-9.839,42.113-7.825,14.158,1.932,26.484,8.151,38.818,14.732,1.876.813,1.063.557,5.347,2.864C643.177,187.827,642.179,190.1,641.9,189.969Z" transform="translate(-422.843 -169.488)"/></g><path class="w" d="M499.893,269.879a61.585,61.585,0,0,0-10.931,10,26.11,26.11,0,0,1,6.485,1.175c2.664-3.15,9.011-5.868,11.343-7.04a82.633,82.633,0,0,1,10.185-4.888,3.87,3.87,0,0,1,.073-.421,6.947,6.947,0,0,0-2.7-6.635C509.381,264.519,504.44,266.64,499.893,269.879Z" transform="translate(5886.823 -4706.256)"/><path class="w" d="M656.385,63.942c-7.424-.838-15.2-.07-22.536,1.174q-1.094.185-2.176.424a25,25,0,0,0-11.2,5.161,15.138,15.138,0,0,0-4.55,7.088,2.234,2.234,0,0,0,.137,1.98.112.112,0,0,1,.016.111.11.11,0,0,1-.084.073,51.146,51.146,0,0,0-11.6,4.743,70.489,70.489,0,0,0-15.819,11.049c-3.113,2.893-6.935,7.239-4.975,11.8a4.5,4.5,0,0,0,2.785,2.719.116.116,0,0,1,.044.2c-6.393,5.86-10.25,15.126-13.176,23.117-1.469,4.009-4.534,10.076-1.152,13.9a3.989,3.989,0,0,0,1.94,1.262.118.118,0,0,1,.076.163c-7.147,14.965-5.6,34.24,6.786,46.028a.123.123,0,0,1,.036.073c.328,3.164,1.387,5.9,4.259,7.567,3.3,1.92,7.3,1.3,10.779,2.693,2.222.888,2.6,3.965,3.862,5.763a45.8,45.8,0,0,0,9.02,9.029,104.387,104.387,0,0,0,9.715,6.961.117.117,0,0,1-.059.216,91.27,91.27,0,0,0-17.225,2.574c-4.73,1.074-9.444,2.338-14.081,3.761a80.02,80.02,0,0,0-9.076,3.184,100.4,100.4,0,0,0-20.515,12.334c-5.852,4.561-12.47,9.956-15.719,16.777-2.4,5.034-3.9,12.7,1.714,16.237a8.442,8.442,0,0,0,1.3.677.117.117,0,0,1,.073.1.12.12,0,0,1-.055.108,38.682,38.682,0,0,0-10.836,10,23.282,23.282,0,0,0-4.273,5.1,28.691,28.691,0,0,0-2.953,22.143c2.355,8.84,8.575,15.921,14.87,22.271a.108.108,0,0,1,.033.067c.012.091.029.183.041.275a.115.115,0,0,1-.029.093.11.11,0,0,1-.091.038,45.108,45.108,0,0,0-17.317,3.21.117.117,0,0,1-.141-.169,6.833,6.833,0,0,0,.711-1.543,7.662,7.662,0,0,0-1.45-6.887c-2.989-3.452-8.766-3.731-12.772-2.115-9.3,3.75-16.009,12.646-21.776,20.481a6.521,6.521,0,0,1-3.673,1.969c-1.777.465-3.584.758-5.356,1.273-4.8,1.4-7.782,3.982-9.164,8.918-1.749,6.254,2.388,12.717,5.264,17.98a155.3,155.3,0,0,0,12.822,19.386c4.473,5.885,9.086,11.671,13.906,17.276,3.89,4.52,11.046,11.449,17.321,6.955,4.3-3.08,5.418-9.5,5.926-14.412a79.841,79.841,0,0,0-.328-20.007c-.065-.434-.148-.864-.222-1.295a.117.117,0,0,1,.2-.095c2.435,2.933,11.56,13.279,14.829,6.094,2.963-6.515-7.085-10.453-11.781-11.854a.117.117,0,0,1,.007-.227c3.832-.893,7.63-1.926,11.47-2.783s7.663-1.705,11.479-2.629a.123.123,0,0,1,.077.007,49.135,49.135,0,0,0,24.5,4.419c23.125-1.712,44.928-18.523,60.448-34.751.021-.021.044-.032.034-.023.216-.141.634-.566.855-.751,2.381-2,5.356-3.289,7.907-5.08a.116.116,0,0,1,.082-.019,1.217,1.217,0,0,0,.666-.043,21.642,21.642,0,0,0,2.506-2.049c1.333-1.181,2.636-2.407,3.906-3.655.685-.674,5.965-5.9,5.532-6.81a.115.115,0,0,1,.018-.128c15.214-17.118,28.987-38.828,34.892-61.079a.116.116,0,0,1,.118-.087c23.908,1.158,40.786-20.393,61.07-29.47,2.94-1.315,6.122-2.562,9.4-2.322,3.249.238,6.114,1.957,9.285,2.511a9.849,9.849,0,0,0,10.059-4.546c5.1-7.637,1.825-16.418-6.806-19.274-6.324-2.094-13.86-1.4-20.314-.232a56.144,56.144,0,0,0-11.987,3.614.117.117,0,0,1-.125-.194c7.251-6.591,12.482-14.075,14.994-23.657A57.868,57.868,0,0,0,760.4,179.44c-.312-3.7-1.219-7.328-1.487-11.038-.044-.615-.077-1.233-.092-1.85a.112.112,0,0,1,.047-.1.113.113,0,0,1,.106-.018,4.074,4.074,0,0,0,3.054-.283c4.475-2.12,4.067-7.932,3.934-12.071-.236-7.328-.339-14.66-.715-21.983-.586-11.362-3.786-23.166-14.161-29.392-4.532-2.72-10.56-4.005-15.234-.883a.117.117,0,0,1-.126,0,.113.113,0,0,1-.055-.113c2.9-24.491-25.484-42.915-46.791-45.65-9.243-1.186-20-.634-28.6,3.184-1.887.838-3.713,2.352-3.76,4.579a.116.116,0,0,1-.04.085.113.113,0,0,1-.089.027ZM592.024,264.889a6.549,6.549,0,0,0-2.474,1.288c-2.436,1.541-4.828,3.158-7.239,4.737a4.287,4.287,0,0,0-1.608,2.013c-4.347.158-10.9,1.906-14.94,2.594a71.782,71.782,0,0,0-11.135,2.757,38.822,38.822,0,0,1,4.839-5.448c3.2-2.529,7.2-3.8,11.057-4.938,5.061-1.5,10.152-2.9,15.233-4.339,3.159-.892,6.356-1.742,9.533-2.662A25.206,25.206,0,0,1,592.024,264.889Z" transform="translate(5879.873 -4783.319)"/><path class="x" d="M630.037,305.81a159.286,159.286,0,0,1-19.161,17.173c-19.22,14.467-43.028,24.152-66.539,14.02a1.658,1.658,0,0,1-.526-.36q-1.088.282-2.189.54c-2.97.693-5.947,1.358-8.925,2.021-6.843,1.527-13.582,3.624-20.563,4.469-14.715,1.78-19.179-19.1-20.505-29.9-.687-5.591,9.308-9.719,13.4-11.769,7.866-4.387,16.186-7.839,25.161-8.411-5.635-5.945-10.765-12.532-12.907-20.575a30.506,30.506,0,0,1,3.155-23.532c4.778-7.815,14.147-15.752,22.5-19.183a68.8,68.8,0,0,1,14.611-4.029c4.906-.836,10.351-2.491,15.311-2.623,2.193-.655,6.272-4.015,7.89-5.47,1.31-1.177,5.65-4.513,5.566-6.361-.1-2.212,7.533-4.318,9.9-5.119a53.659,53.659,0,0,0,11.677-5.446c6.129-3.921,10.978-8.31,10.309-16.046-.113-1.3-.032-2.51,1.708-1.99,5.175,1.552,8.985,3.731,14.21,5.113,3.037.8,3.113,1.114,3.4,2.31A21.821,21.821,0,0,0,650.184,205.1c8.715,3.567,17.11.685,23.147-6.256a42.1,42.1,0,0,0,15.634-.39,1.705,1.705,0,0,1,1.009,1.493c1.171,35.531-24.151,74.623-49.088,98.342a27.91,27.91,0,0,1-5.3,3.74,33.38,33.38,0,0,0-4.729,3.069C630.589,305.32,630.325,305.589,630.037,305.81Z" transform="translate(5887.806 -4735.719)"/><path class="y" d="M619.88,289.5c-1.149-.652-2.182-1.265-3.034-1.8a148.317,148.317,0,0,1-26.312-20.823A94.281,94.281,0,0,0,619.88,289.5Zm-31.951-79.245c5.45-.829,33.228-7.987,31.62-26.583,3.769,1.131,9.58,4.015,15.781,6.434,2.315,14.585,23.96,26.684,38.8,9.614,2.4,1.141,13.714-.27,13.722.066,1.137,34.38-23.25,73-48.572,97.08-2.984,2.84-7.019,4.272-9.957,6.74-.615.52-.847.765-.88.768-21.394,22.369-53.088,44.162-83.905,30.883-.109-.047,3.142-.725,6.592-1.718,7.069-2.035,17.207-7.3,27.21-13.1,12.524-7.262,14.325-18.288,14.814-27.515.088-1.667,11.957-5.851,9.665-5.8-10.062.206-9.717-1.649-10.33-5.535-1.8-11.45-5.251-20.132-6.983-20.18,9.285,22.7,8.413,48.488-7.677,57.566-12.845,7.248-22.583,12.993-37.042,16.375-2.962.693-5.934,1.352-8.907,2.017-6.718,1.5-13.569,3.615-20.4,4.44-13.386,1.62-17.441-18.664-18.652-28.444-.525-4.348,9.463-8.556,12.525-10.093,8.683-4.847,17.928-8.557,28.024-8.289-.012-.093-.028-.181-.04-.275-6.326-6.382-12.544-13.47-14.9-22.323a28.809,28.809,0,0,1,2.967-22.234c4.609-7.515,13.676-15.211,21.712-18.512a67.179,67.179,0,0,1,14.259-3.928c4.143-.706,10.93-2.525,15.27-2.6C576.564,224.135,588.113,214.3,587.929,210.258Z" transform="translate(5888.259 -4735.505)"/><path class="z" d="M738.942,165.906a34.794,34.794,0,0,0,.31,9.476c.888,5.838,1.58,11.48,1.049,17.406-.784,8.749-3.812,16.228-9.937,22.532a95.148,95.148,0,0,1-29.926,20.673c-5.521,2.382-11.064,4.727-16.6,7.075-16.462,6.983-37.865-.9-53.584-5.1-16.462-4.408-42.963-15.65-48.244-30.9-.792-1.206-1.005-2.682-1.708-3.845-1.44-2.386-5.665-2.077-8.089-2.58-5.444-1.129-8.483-4.082-8.786-9.82-.092-1.731-.117-3.485-.037-5.218a9.955,9.955,0,0,1,.154-1.006c1.869-3.08,5.75-3.555,11.262-1.7,5.3,2.808,18.873-15.728,20.444-17.732,4.44-5.676,8.885-12.212,11.407-19.121,2.8,2.11,8.967.516,11.888-.18a56.7,56.7,0,0,0,18.266-8.378c2.2-1.477,4.494-3.092,6.728-4.818-1.336,5.244,3.68,6.874,7.935,6.219a71.545,71.545,0,0,0,26.414-9.746c-.581,2.185-.261,4.9,1.793,6.116,2.68,1.594,7.5,0,10.3-.807a37.607,37.607,0,0,0,23.508-20.2c4.432,8.31,15.049,10.327,20.316,29.3,1.569,5.639,1.2,11.173,2.06,16.849a8.633,8.633,0,0,0,3.078,5.507Zm18.523,53.32c-6.339-2.1-13.909-1.407-20.372-.235a56.1,56.1,0,0,0-12.013,3.619c7.118-6.47,12.461-13.911,15.028-23.712a58.006,58.006,0,0,0,1.633-19.491c-.313-3.707-1.221-7.325-1.487-11.037-.044-.614-.077-1.229-.092-1.844a4.166,4.166,0,0,0,3.14-.288c4.546-2.153,4.133-8.03,4-12.18-.235-7.329-.339-14.666-.715-21.986-.588-11.4-3.808-23.231-14.217-29.485-4.655-2.785-10.695-4-15.359-.88,2.905-24.587-25.561-43.043-46.894-45.781-9.223-1.185-20.025-.636-28.664,3.2-2.035.908-3.783,2.472-3.829,4.682-7.468-.843-15.388-.045-22.568,1.174-7.772,1.318-15.549,4.594-18.015,12.754a2.316,2.316,0,0,0,.157,2.086c-4.126.932-8.431,3.114-11.633,4.752a70.873,70.873,0,0,0-15.845,11.067c-3.12,2.907-6.99,7.3-5,11.933a4.593,4.593,0,0,0,2.857,2.783c-6.5,5.956-10.4,15.492-13.207,23.164-1.461,3.983-4.57,10.13-1.129,14.018a4.038,4.038,0,0,0,2,1.3c-7.159,14.994-5.667,34.284,6.81,46.164.318,3.076,1.339,5.922,4.317,7.655,3.363,1.954,7.316,1.31,10.794,2.7,2.174.869,2.507,3.86,3.812,5.72,2.922,7.007,13.438,13.581,17.669,16.252-12.759.324-33.919,6.867-39.327,9.3a100.6,100.6,0,0,0-20.54,12.349c-5.86,4.57-12.5,9.992-15.753,16.82-2.426,5.094-3.913,12.815,1.758,16.385,7.313,4.605,11.342-5.744,15.844-9.3,3.2-2.529,7.2-3.8,11.056-4.938,5.063-1.5,10.152-2.9,15.233-4.339,8.446-2.386,17.154-4.464,25.052-8.392,6.972-3.468,14.088-8.819,16.735-16.451a14.092,14.092,0,0,0,.877-6.258c20.953,9.867,54.215,22.226,76.61,12.509,11.782-5.113,23.023-9.887,33.3-17.754l.441-.339a79.936,79.936,0,0,1,17.1-4.45c6.117-.855,13.1-1.344,19.055.633,6.025,2,13.913,10.581,5.614,15.373-6.044,3.492-12.169-2.34-18.5-1.325-5.914.949-11.642,4.506-16.637,7.637-5.6,3.512-10.9,7.491-16.37,11.2-10.714,7.266-21.487,13.505-34.8,12.561-.216.953-.812,3.176-.964,3.967,24.795,2.2,40.328-20.143,61.11-29.443,2.919-1.306,6.09-2.55,9.349-2.311,3.232.236,6.11,1.957,9.272,2.509a9.958,9.958,0,0,0,10.174-4.6c5.112-7.653,1.928-16.539-6.865-19.448ZM563.309,260.437c11.808-3.343,28.223-6.9,37.982-14.722,3.191-2.555,8.123-7.011,5.759-11.456-3.4-6.389-40.118,2.532-45.185,4.678a103.456,103.456,0,0,0-31.929,20.924c-3.586,3.489-8.646,8.263-6.7,13.744a7.431,7.431,0,0,0,6.628,5.041c5.853.026,8.711-8.09,13.058-11.05C548.769,263.616,556.617,262.332,563.309,260.437Z" transform="translate(5898.722 -4783.371)"/><path class="aa" d="M515.472,265.212c-.012,0-.044.078-.029.084S515.487,265.218,515.472,265.212Z" transform="translate(5896.701 -4705.086)"/><path class="x" d="M525,311.258a24.045,24.045,0,0,0,5.667-9.245c1-2.845,2.893-9.016-.913-10.7-3.467-1.53-5.7,2.454-6.415,5.2a18.777,18.777,0,0,0-.165,6.445q.282,3.32.369,6.636c-5.175-16.014-12.789-27.541-27.62-28.4a61.534,61.534,0,0,1,10.931-10c4.548-3.239,9.488-5.36,14.454-7.8a6.948,6.948,0,0,1,2.7,6.635c-.43,1.992.986-.671,1.131-1.342,1.888-8.72-7.533-11.9-14.381-9.134-9.33,3.762-16.058,12.688-21.826,20.519-2.893,3.937-14.946.533-18.21,12.2-1.76,6.29,2.364,12.745,5.273,18.068a155.531,155.531,0,0,0,12.831,19.4c4.467,5.875,9.1,11.685,13.912,17.28,3.919,4.556,11.13,11.52,17.476,6.975,4.349-3.114,5.468-9.585,5.974-14.5a79.946,79.946,0,0,0-.328-20.036c-.065-.435-.148-.866-.223-1.3,4.552,5.487,12.108,12.478,15.024,6.068,3.3-7.254-9.141-11.678-15.663-12.963Zm-.435-8.045h0c-.2-2.676-1.616-7.566,1.354-9.378,4.175-2.55,5.459,3.308,4.771,6.153A22.525,22.525,0,0,1,524.8,310.2c0-2.333-.06-4.662-.232-6.989ZM506.4,263.79h0c3.328-1.944,7.454-3.365,11.318-2.333a8.957,8.957,0,0,1,2.179.925c-9.9,2.743-18.991,10.688-25.163,18.444-.435.544-4.677.309-5.693.383,5.064-6.475,10.141-13.2,17.358-17.42Zm15,86.13h0c-4.9,3.562-10.9-.724-14.408-4.229-4.5-4.5-8.367-9.839-12.3-14.825-7.406-9.389-14.469-19.187-19.644-30.011-1.259-2.634-4.287-7.556-2.329-10.281,1.79-2.489,9.117-4.52,9.069-4.247-1.863,12.988,6.668,25.457,13.212,35.959,6.039,9.692,14.747,26.552,28.422,24.975a6.477,6.477,0,0,1-2.021,2.66Zm3.28-22.473h0a76.9,76.9,0,0,1,.26,8.151,48.8,48.8,0,0,1-.647,8.871c-13.512,1.041-21.638-14.553-27.754-24.309-6.242-9.96-14.235-21.744-13.989-34.007,19.546-4.377,30.354,4.328,38.142,23.952a61.254,61.254,0,0,1,3.987,17.342Zm13.276-3.067h0c-2.566.324-5.883-2.878-7.626-4.416a33.89,33.89,0,0,1-5.689-6.563c-.012-.048-.026-.1-.038-.146a37.2,37.2,0,0,1,8.2,3.148C534.142,317.133,544.1,323.6,537.955,324.379Z" transform="translate(5879.862 -4707.563)"/><path class="w" d="M521.352,320.254h0a76.9,76.9,0,0,1,.259,8.151,48.8,48.8,0,0,1-.647,8.871c-13.512,1.041-21.638-14.553-27.752-24.309-6.243-9.96-14.236-21.744-13.99-34.007,19.546-4.377,30.354,4.328,38.142,23.952A61.207,61.207,0,0,1,521.352,320.254Z" transform="translate(5883.188 -4700.371)"/><path class="ab" d="M520.917,342.385h0c-4.9,3.562-10.9-.724-14.408-4.229-4.5-4.5-8.367-9.839-12.3-14.825-7.406-9.39-14.469-19.187-19.644-30.011-1.259-2.634-4.287-7.556-2.329-10.281,1.791-2.489,9.117-4.52,9.069-4.246-1.863,12.986,6.668,25.455,13.212,35.958,6.039,9.692,14.747,26.552,28.422,24.975A6.478,6.478,0,0,1,520.917,342.385Z" transform="translate(5880.343 -4700.029)"/><path class="ac" d="M628.387,276.621c-8.108-4.237-17.732-8.5-25.091-14.018a116.354,116.354,0,0,1-19.65-18.719,113.853,113.853,0,0,1-14.953-23.234q-1.576-3.267-2.938-6.631c-.562-1.388-1.034-4.318-2.084-5.37-1.4-1.4-2.547-.254-3.96.64-2.437,1.541-4.828,3.158-7.239,4.737-8.742,5.726,11.641,39.9,16.231,44.928a114.406,114.406,0,0,0,20.371,17.2c3.385,2.3,25.565,14.471,27.442,13.247,1.895-1.175,13.455-11.957,11.872-12.785Zm-75.659-60.284q2.745-1.8,5.489-3.595c1.4-.921,2.728-2.264,4.112-1.008.763.693.946,2,1.306,2.936.016.044.034.087.051.13-1.545.96-2.925,2.309-4.353,3.4-1.823,1.392-3.758,2.643-5.549,4.074-1.817,1.453-.98-3.452-1.057-5.937Zm.93,8.377a43.907,43.907,0,0,0,10.353-8.6.941.941,0,0,0,.114-.218q1.036,2.618,2.2,5.182c-1.73.853-3.588,3.044-4.939,4.122-1.944,1.55-4.184,2.837-5.772,4.755-1.733,2.09-1.648-3.589-1.959-5.242Zm1.9,7.3c1.722-.384,4.04-2.846,5.234-3.817a30.792,30.792,0,0,0,5.826-5.587,3.368,3.368,0,0,0,.21-.45c.722,1.547,1.475,3.083,2.272,4.6.253.482.52.957.781,1.435-1.609,1.493-3.013,3.245-4.635,4.722-2.1,1.913-4.476,3.441-6.628,5.275-1.379,1.174-2.4-4.2-3.061-6.173Zm3.511,8.356c4.4-2.428,8.742-7.162,11.263-11.168a.775.775,0,0,0,.047-.1c.733,1.317,1.5,2.614,2.287,3.9-1.547,1.119-2.835,2.985-4.158,4.256a90.864,90.864,0,0,1-7.167,6.058c-1.2.931-1.163-.763-2.272-2.944Zm2.875,5.067c4.239-3.169,8.547-7.06,11.222-11.51a.562.562,0,0,0,.028-.06q2.173,3.485,4.594,6.8a57.438,57.438,0,0,1-11.423,10.184c-1.3.839-3.662-4.206-4.421-5.418Zm5.358,7.432a42.435,42.435,0,0,0,11.1-11.374c1.329,1.8,2.717,3.548,4.145,5.266-3.552,3.273-6.975,6.706-10.417,10.089-1.729,1.7-2.207-.787-4.824-3.981Zm5.314,5.848c3.543-3.411,7.108-6.817,10.507-10.369a1.59,1.59,0,0,0,.286-.538q1.928,2.259,4.016,4.49a34.348,34.348,0,0,0-3.223,3.331c-2.406,2.285-4.917,4.435-7.4,6.632-.665.592-3.371-2.73-4.185-3.545Zm5.36,5.049h0c3.8-3.04,7.842-6.578,10.309-10.563q2.146,2.249,4.443,4.427a71.275,71.275,0,0,0-8.991,10.934c-1.977-1.546-3.9-3.147-5.761-4.8Zm11.484,8.984q-2.4-1.637-4.711-3.4c1.2-1.237,2.228-2.742,3.3-4,1.883-2.212,3.843-4.39,5.554-6.738a.681.681,0,0,0,.06-.1q2,1.862,4.1,3.64a45.83,45.83,0,0,0-3.927,4.737,42.7,42.7,0,0,0-4.379,5.864Zm1.07.726c1.166-1.3,1.946-2.844,3.03-4.156a78.5,78.5,0,0,0,5.153-6.372q1.885,1.565,3.838,3.044a75.263,75.263,0,0,0-7.144,10.536q-2.478-1.454-4.877-3.051Zm5.779,3.57c.884-1.107,1.5-2.374,2.312-3.526,1.6-2.288,3.224-4.564,4.774-6.889q2.441,1.812,4.976,3.468c-.746,1.008-1.358,2.2-1.992,3.133q-2.29,3.351-4.572,6.707-2.789-1.351-5.5-2.894Zm11.748,5.613h0q-2.544-.982-5.031-2.142a51.657,51.657,0,0,0,3.045-4.9,58.67,58.67,0,0,0,3.146-4.976q2.22,1.417,4.5,2.687c-2.042,2.995-3.816,6.239-5.663,9.333ZM614.4,273.7h0q2.6,1.421,5.266,2.632a49.733,49.733,0,0,0-5.672,7.346,5.693,5.693,0,0,0-.47.847q-2.3-.69-4.572-1.532c1.888-3.054,3.786-6.124,5.448-9.293Zm3.459,12.462a7.266,7.266,0,0,1-3.309-1.336c1.935-2.65,4.108-5.076,6.081-7.7a1.416,1.416,0,0,0,.148-.317c1.46.632,3.846,1.4,5.332,1.917C623.927,282,621.166,283.927,617.858,286.161Z" transform="translate(5909.712 -4726.432)"/><path class="u" d="M709.971,154.9c-13.323,3.8-24.48-4.125-37.063-6.743-15.009-3.12-25.488,7.3-35.653,16.584-10.011,9.142-21.342,14.612-35.082,14.534-40.558-.214-56.136-19.955-18.443-43.5,12.449-7.763,28.035-11.84,42.893-10.185,7.04.792,13.18,3.9,19.943,5.664,7.147,1.866,12.767-.118,18.458-4.506,10.167-7.837,21.221-15.586,34.666-15.247,12.211.31,23.856,7.943,24.972,20.842C725.523,142.243,719.7,152.119,709.971,154.9Z" transform="translate(5914.167 -4762.436)"/><g transform="translate(6462.128 -4716.004)"><path class="ad" d="M646.374,104.2c-3.507.75-6.941,1.7-10.508,2.146-2.568.32-8.727,1.58-10.984-.172-4.708-3.652,4.042-7.11,6.757-8.03a64.37,64.37,0,0,1,11.451-2.382c1.591-.232,2.708-3.886.65-3.927-8.926-.18-19.411-.8-27.747-4.314-1.435-.606-3.566-1.45-1.369-3.507a7.845,7.845,0,0,1,2.4-.836,44.186,44.186,0,0,1,7.067-1.611,49.734,49.734,0,0,1,12.647-.117c1.422.159,2.473-3.353.956-3.677-5.393-1.152-10.747-2.5-16.058-3.983-2.392-.669-5.985-2.261-2.11-4.35,2.183-1.175,5.131-1.488,7.557-1.758,9.53-1.059,18.856,2.18,26.664,7.522.812.555,1.506-1.09.956-1.661-8.664-9.011-22.978-11.682-34.7-7.531-3.44,1.218-7.442,5.03-4.258,8.694,1.76,2.024,4.924,2.738,7.48,3.438-1.285.225-2.566.492-3.839.821-3.751.972-9.418,2.278-8.932,7.3.519,5.344,7.95,6.133,12,7.056,2.667.607,5.352,1.087,8.052,1.462a27.334,27.334,0,0,0-3.31,1.484c-3.38,1.822-7.349,4.85-7.16,9.138.442,10.113,20.92,4.616,26.07,2.525C647.265,107.46,648.169,103.82,646.374,104.2Z" transform="translate(-529.995 -64.107)"/><path class="ad" d="M610.652,71.964c-11.53-4.177-27.016,1.942-35.238,10.25-3.538,3.575-4.4,9.754,1.856,10.825,3.732.637,8.091-.233,11.815-.7,3.5-.443,7.509-.575,10.56-2.439.584-.357,1.206-2.256.192-2.485-2.456-.553-4.984.379-7.453.751q-4,.6-8.034.932c-2.495.2-10.636,1.471-8.319-3.574.825-1.8,4.023-3.695,5.667-4.822a40.056,40.056,0,0,1,13.023-5.787c5.177-1.282,10.2-1,15.466-1.164C610.872,73.726,611.395,72.233,610.652,71.964Z" transform="translate(-544.081 -61.679)"/><path class="ad" d="M617.369,111.55c-4.007-.021-8.1,1.195-12.06,1.793-1.694.255-4.781.486-4.755-2.069.026-2.629,4.17-3.8,6.164-4.486,1.355-.467,2.311-3.946.292-4-3.027-.088-5.715.872-8.528,1.874a18,18,0,0,1-5.586,1.329,7.478,7.478,0,0,1-2.671-.413c-2-.725-2.145-1.355-2.16-3.507-.03-4.081,4.2-7.279,7.492-9.345a31.868,31.868,0,0,1,11.112-4.13c1.145-.211,1.994-2.959.479-2.894-8.634.36-20.9,6.7-22.664,16.094-.792,4.228,2.057,7.673,6.234,8.258,2.658.371,5.15-.408,7.634-1.287a6.616,6.616,0,0,0-.367,6.068c1.07,2.661,3.512,3.143,6.114,2.815a66.732,66.732,0,0,0,13.007-2.535C618.3,114.7,619.168,111.559,617.369,111.55Z" transform="translate(-539.718 -56.053)"/><path class="ad" d="M582.114,112.965a65,65,0,0,1-5.358,5.5c-1.325,1.181-4.435,4.454-6.429,4.17-1.451-.209-2.046-2.138-1.97-3.28a15.086,15.086,0,0,1,1.017-3.472,40.01,40.01,0,0,1,3.4-7.239c.6-1.024.183-4.324-1.5-2.737A103.263,103.263,0,0,1,563,112.969c-1.828,1.391-8.27,5.678-6.646-.092a29.32,29.32,0,0,1,1.175-3.077,33.623,33.623,0,0,1,15.292-15.945c1.077-.553,1.542-3.622-.069-2.934-9.837,4.207-17.886,13.157-19.971,23.854-.732,3.754.857,8.045,5.392,5.857a37.3,37.3,0,0,0,8.271-5.84c-1.6,3.968-2.436,8.2-.166,10.812,4.932,5.679,14.7-6.36,17.453-9.676C585.022,114.375,584.066,110.764,582.114,112.965Z" transform="translate(-551.559 -54.142)"/><path class="ad" d="M572.136,127.5c-4.067,3.617-7.354,8.79-12.311,11.317-4.774,2.434-4.888-3.646-4.125-6.539.842-3.192,2.613-6.289,4.116-9.217.549-1.07-.2-3.423-1.394-1.808-2.769,3.732-5.248,7.561-6.2,12.194-.644,3.136-.8,7.934,2.279,9.957s6.379-.448,8.762-2.381c3.82-3.1,7.767-6.694,10.283-10.95C574.126,129.1,573.763,126.056,572.136,127.5Z" transform="translate(-551.845 -42.992)"/></g><g transform="translate(6511.052 -4634.443)"><path class="w" d="M665.642,123.518c8.329-.236,15.208,4.018,15.363,9.5s-6.469,10.122-14.8,10.36-15.208-4.018-15.365-9.5S657.313,123.755,665.642,123.518Z" transform="translate(-563.837 -123.508)"/><path class="w" d="M600.141,137.27c8.484-2.506,16.7-.007,18.348,5.579S614.6,155,606.114,157.5s-16.7.007-18.347-5.58S591.657,139.775,600.141,137.27Z" transform="translate(-587.476 -118.737)"/></g><path class="ae" d="M674.063,130.442c-2.665,1.941-5.358,3.372-8.774,3.235-3.536-.143-5.687-2.429-8.834-3.371-.3-.091-.706,1.352-.615,1.574,2.846,6.908,12.941,6.2,17.452,1.567A7.23,7.23,0,0,0,674.063,130.442Z" transform="translate(5949.075 -4755.417)"/><path class="ae" d="M611.582,141.357c-2.319,2.1-3.787,4.13-7.107,4.684a10.417,10.417,0,0,1-4.409-.239c-1.623-.443-3.372-2.11-4.925-1.885-.7.1-1.343,2.375-1.156,2.958,1.251,3.9,7.552,3.943,10.8,2.647a11.973,11.973,0,0,0,6.735-7.2C611.533,142.288,611.754,141.2,611.582,141.357Z" transform="translate(5925.991 -4751.298)"/><path class="ae" d="M655.549,149.581c-1.664-3.96-5.281-4.394-9.055-4.265-1.3.045-.858.434-2.023-.054-1.229-.515-1.624-1.784-2.277-2.878-1.193-2.009-2.233-4.228-4.008-5.775-.251-.218-1.137,2.2-1.006,2.577,1.267,3.711,3.735,7.031,5.789,10.357.038.111.108.136.209.076,2.744-1.195,5.969-1.265,8.409.674,3.31,2.628,3.136,6-.582,8.193-.435.257-1.552,3.369-1.1,3.38C654.853,161.979,657.1,153.275,655.549,149.581Z" transform="translate(5942.114 -4753.068)"/><path class="ae" d="M648.692,165.491c-1.553-.857-3.505-.4-5.246-.546a16.11,16.11,0,0,1-5.035-1.2A17.54,17.54,0,0,1,634.5,161.4c-.894-.7-1.664-1.722-2.559-2.484a7.713,7.713,0,0,0,2.05-2.279c.041-.07.317-.658.18-.7-.579-.174-1.252.542-1.736.81a11.789,11.789,0,0,1-2.7,1.1,11.018,11.018,0,0,1-3.345.314,8.09,8.09,0,0,0-2.644-.076c-.371.1-.9,1.672-.638,1.97,1.229,1.414,4.292.8,5.895.314a10.6,10.6,0,0,0,1.189-.448c1.635,6.865,11.958,11.217,17.916,7.38C648.337,167.155,649.034,165.68,648.692,165.491Z" transform="translate(5936.841 -4745.862)"/><path class="af" d="M674.934,118.5c-1.875-2.9-8.963-4.962-12.132-4.244-5.978,1.357,2.834,9.7,10.408,9.109C675.746,123.17,676.14,120.367,674.934,118.5Z" transform="translate(5950.941 -4761.455)"/><path class="af" d="M585.173,133.38c1.73-2.991,8.705-5.4,11.906-4.841,6.039,1.057-2.347,9.834-9.941,9.616C584.594,138.08,584.063,135.3,585.173,133.38Z" transform="translate(5922.511 -4756.105)"/><path class="v" d="M672.2,144.638c7.484-.233,13.676,3.552,13.83,8.453s-5.79,9.065-13.276,9.3-13.676-3.551-13.828-8.451S664.717,144.871,672.2,144.638Z" transform="translate(5950.23 -4750.072)"/><path class="v" d="M599.778,158.366c7.307-1.638,14.1.913,15.174,5.7s-3.982,9.992-11.288,11.63-14.1-.912-15.172-5.7S592.472,160,599.778,158.366Z" transform="translate(5923.9 -4745.132)"/><path class="x" d="M592.3,244.783a1.505,1.505,0,0,1-.92-.445,1.481,1.481,0,0,1-.427-1,115.491,115.491,0,0,1,.534-11.988c.119-1.62.243-3.24.331-4.862q.15-2.725.374-5.444t.524-5.437a1.747,1.747,0,0,1,.461-.949,1.662,1.662,0,0,1,.448-.339,1.524,1.524,0,0,1,1.085-.119,1.572,1.572,0,0,1,.581.29c.548.428,1.038.967,1.545,1.443,1.472,1.384,2.943,2.765,4.4,4.162.088-.354.176-.708.266-1.061q.859-3.382,1.852-6.724t2.119-6.631a1.748,1.748,0,0,1,.405-.636,1.659,1.659,0,0,1,.47-.332,1.515,1.515,0,0,1,1.239-.018,1.591,1.591,0,0,1,.382.231l3.3,2.7c2.562,2.1,5.123,4.192,7.662,6.315a1.292,1.292,0,0,1,.467.994,1.163,1.163,0,0,1-.011.6c-.349,1.247-.667,2.495-.99,3.748a16.434,16.434,0,0,1-.692,2.234,19.194,19.194,0,0,1-2.156,3.518c-.179.251-.36.5-.512.739-1.758,2.9-3.37,5.874-4.927,8.882-.765,1.479-1.516,2.964-2.267,4.45-.011.021-.021.04-.033.06l-.029.048-.052.082a1.117,1.117,0,0,1-.1.14l-.03.036a1.1,1.1,0,0,1-.121.121l-.052.045a1.175,1.175,0,0,1-.229.155l-.077.04a1.079,1.079,0,0,1-.24.091l-.054.014a1.093,1.093,0,0,1-.3.038H606.4a1.136,1.136,0,0,1-.254-.029l-.054-.012a1.1,1.1,0,0,1-.166-.051l-.089-.036a1,1,0,0,1-.159-.077l-.056-.033c-.032-.019-.059-.036-.091-.058l-.038-.027c-.023-.016-.041-.03-.063-.048-.087-.07-.166-.146-.249-.222q-1.293-1.19-2.579-2.386c-1.008,1.339-2.075,2.632-3.07,3.981l-.2.269a27.712,27.712,0,0,0-1.907,2.927,1.93,1.93,0,0,1-.868.969,1.141,1.141,0,0,1-.224.095l-.095.029a1.107,1.107,0,0,1-.309.049l-.093,0a1.188,1.188,0,0,1-.209-.014Z" transform="translate(5924.865 -4727.709)"/><path class="u" d="M613.792,220c.154-.258.31-.515.467-.772.792-1.3,1.862-2.613,2.687-3.912l.1-.157.086-.146.073-.13.059-.114.044-.092.029-.073c-2.58-2.156-4.99-4.127-7.549-6.221l-3.179-2.6a.3.3,0,0,0-.027.04q-1.116,3.267-2.1,6.574t-1.837,6.666q-.216.846-.419,1.682c-.124.512-.258,1.076-.4,1.687l-.081.35-.314-.306c-2.121-2.064-4.029-3.856-6.164-5.863l-1.326-1.247a.228.228,0,0,0-.043.066q-.3,2.7-.52,5.4t-.371,5.4c-.081,1.464-.2,3.135-.334,4.89-.286,3.862-.6,8.129-.544,11.331,2.047-3.764,5.032-7.041,7.557-10.512l.012-.016.033-.047.228-.317.143-.2.6.557c1.449,1.346,2.9,2.691,4.316,4l.074.07c.028.026.054.052.077.073l.005,0,.032-.051h0C607.929,230.614,610.545,225.118,613.792,220Z" transform="translate(5925.307 -4727.255)"/><g transform="translate(6518 -4509.926)"><path class="u" d="M600.237,225.627c-1.933,2.683-4.1,5.2-5.976,7.925l-.038.056c-.538.8-1.035,1.6-1.508,2.437l-.178.325,2.794.433.034-.025.026-.023.015-.018c.74-1.166,1.343-2.245,2.171-3.383l.2-.27c1.1-1.469,2.259-2.894,3.357-4.365l.212-.284.209-.288.141-.2Z" transform="translate(-592.537 -209.927)"/><path class="u" d="M598.951,226.282l-.066-.062-.011-.01.917,1.46q1.849,1.718,3.7,3.433C602.8,229.2,600.583,227.8,598.951,226.282Z" transform="translate(-590.173 -209.709)"/><path class="u" d="M602.15,233.968l.46,1.249c2.371-4.69,4.866-9.951,7.894-14.233h0c.434-.612.862-1.225,1.265-1.856l.077-.125.069-.117.058-.1.048-.091.034-.074.023-.058,1.225-4.369c-.659.975-1.383,1.939-2.036,2.918l-.007.01,0,.005-.07.107v0l-.007.01-.012.021-.077.126-.027.044c-2.178,3.6-4.169,7.283-6.1,11.02h0l-.077.147-.012.025-.022.041-.022.044-.011.021-.034.066h0q-1.3,2.535-2.586,5.082l-.008.016-.034.067Z" transform="translate(-588.951 -214.193)"/></g><path class="ab" d="M501.307,263.1c-7.217,4.218-12.294,10.945-17.358,17.42,1.016-.074,5.258.161,5.693-.383,6.172-7.756,15.262-15.7,25.163-18.444a8.956,8.956,0,0,0-2.179-.925C508.762,259.735,504.636,261.156,501.307,263.1Z" transform="translate(5884.953 -4706.874)"/></g></g></svg>